<?xml version="1.0" encoding="UTF-8" standalone="no"?>
<svg
   id="Calque_1"
   data-name="Calque 1"
   viewBox="0 0 1952.7 556"
   version="1.1"
   sodipodi:docname="storm-logo2.svg"
   inkscape:version="1.3.2 (091e20ef0f, 2023-11-25)"
   xmlns:inkscape="http://www.inkscape.org/namespaces/inkscape"
   xmlns:sodipodi="http://sodipodi.sourceforge.net/DTD/sodipodi-0.dtd"
   xmlns="http://www.w3.org/2000/svg"
   xmlns:svg="http://www.w3.org/2000/svg">
  <sodipodi:namedview
     id="namedview21"
     pagecolor="#ffffff"
     bordercolor="#000000"
     borderopacity="0.25"
     inkscape:showpageshadow="2"
     inkscape:pageopacity="0.0"
     inkscape:pagecheckerboard="0"
     inkscape:deskcolor="#d1d1d1"
     inkscape:zoom="0.61197318"
     inkscape:cx="975.53295"
     inkscape:cy="278.60698"
     inkscape:window-width="1904"
     inkscape:window-height="995"
     inkscape:window-x="1928"
     inkscape:window-y="40"
     inkscape:window-maximized="0"
     inkscape:current-layer="Calque_1" />
  <defs
     id="defs1">
    <style
       id="style1">
      .cls-1 {
        fill: #97d8b2;
        stroke-width: 0px;
      }
    </style>
  </defs>
  <g
     id="g21">
    <path
       class="cls-1"
       d="m 817.29,195.02 c -0.56,0.93 -1.23,1.64 -2.02,2.13 -0.78,0.48 -1.72,0.84 -2.8,1.06 -1.08,0.22 -2.54,0.39 -4.36,0.51 v 3.92 h 9.18 v 27.94 h 5.26 v -39.36 h -3.86 c -0.38,1.61 -0.84,2.87 -1.4,3.81 z"
       id="path1"
       style="fill:#3cb371;fill-opacity:1" />
    <path
       class="cls-1"
       d="m 860.04,198.04 c -0.99,-2.02 -2.38,-3.66 -4.17,-4.93 -1.79,-1.27 -4.03,-1.9 -6.72,-1.9 -2.69,0 -4.92,0.64 -6.72,1.9 -1.79,1.27 -3.17,2.91 -4.14,4.93 -0.97,2.01 -1.65,4.17 -2.04,6.47 -0.39,2.29 -0.59,4.6 -0.59,6.91 0,2.31 0.19,4.62 0.59,6.91 0.39,2.29 1.07,4.45 2.04,6.47 0.97,2.02 2.36,3.66 4.14,4.92 1.79,1.27 4.03,1.9 6.72,1.9 2.69,0 4.93,-0.63 6.72,-1.9 1.79,-1.27 3.18,-2.91 4.17,-4.92 0.99,-2.02 1.67,-4.17 2.04,-6.47 0.37,-2.3 0.56,-4.6 0.56,-6.91 0,-2.31 -0.19,-4.62 -0.56,-6.91 -0.37,-2.3 -1.05,-4.45 -2.04,-6.47 z m -4.7,25.06 c -1.36,2.74 -3.42,4.11 -6.19,4.11 -2.77,0 -4.82,-1.37 -6.18,-4.11 -1.36,-2.74 -2.04,-6.64 -2.04,-11.67 0,-5.03 0.68,-8.93 2.04,-11.67 1.36,-2.75 3.42,-4.12 6.18,-4.12 2.76,0 4.82,1.37 6.19,4.12 1.36,2.74 2.04,6.63 2.04,11.67 0,5.04 -0.68,8.93 -2.04,11.67 z"
       id="path2"
       style="fill:#3cb371;fill-opacity:1" />
    <path
       class="cls-1"
       d="m 879.55,195.02 c -0.56,0.93 -1.23,1.64 -2.02,2.13 -0.78,0.48 -1.71,0.84 -2.8,1.06 -1.09,0.22 -2.54,0.39 -4.36,0.51 v 3.92 h 9.18 v 27.94 h 5.26 v -39.36 h -3.86 c -0.37,1.61 -0.84,2.87 -1.4,3.81 z"
       id="path3"
       style="fill:#3cb371;fill-opacity:1" />
    <path
       class="cls-1"
       d="m 922.3,198.04 c -0.99,-2.02 -2.38,-3.66 -4.17,-4.93 -1.79,-1.27 -4.03,-1.9 -6.72,-1.9 -2.69,0 -4.93,0.64 -6.72,1.9 -1.79,1.27 -3.17,2.91 -4.14,4.93 -0.97,2.01 -1.65,4.17 -2.04,6.47 -0.39,2.29 -0.59,4.6 -0.59,6.91 0,2.31 0.2,4.62 0.59,6.91 0.39,2.29 1.07,4.45 2.04,6.47 0.97,2.02 2.35,3.66 4.14,4.92 1.79,1.27 4.03,1.9 6.72,1.9 2.69,0 4.93,-0.63 6.72,-1.9 1.79,-1.27 3.18,-2.91 4.17,-4.92 0.99,-2.01 1.67,-4.17 2.04,-6.47 0.37,-2.3 0.56,-4.6 0.56,-6.91 0,-2.31 -0.19,-4.62 -0.56,-6.91 -0.37,-2.3 -1.05,-4.45 -2.04,-6.47 z m -4.7,25.06 c -1.37,2.74 -3.43,4.11 -6.19,4.11 -2.76,0 -4.82,-1.37 -6.19,-4.11 -1.36,-2.74 -2.04,-6.64 -2.04,-11.67 0,-5.03 0.68,-8.93 2.04,-11.67 1.36,-2.75 3.42,-4.12 6.19,-4.12 2.77,0 4.82,1.37 6.19,4.12 1.36,2.74 2.04,6.63 2.04,11.67 0,5.04 -0.68,8.93 -2.04,11.67 z"
       id="path4"
       style="fill:#3cb371;fill-opacity:1" />
    <path
       class="cls-1"
       d="m 941.81,195.02 c -0.56,0.93 -1.23,1.64 -2.02,2.13 -0.78,0.48 -1.71,0.84 -2.8,1.06 -1.09,0.22 -2.54,0.39 -4.37,0.51 v 3.92 h 9.18 v 27.94 h 5.26 v -39.36 h -3.86 c -0.37,1.61 -0.84,2.87 -1.4,3.81 z"
       id="path5"
       style="fill:#3cb371;fill-opacity:1" />
    <path
       class="cls-1"
       d="m 817.29,262.2 c -0.56,0.93 -1.23,1.64 -2.02,2.13 -0.78,0.48 -1.72,0.84 -2.8,1.06 -1.08,0.22 -2.54,0.39 -4.36,0.51 v 3.92 h 9.18 v 27.94 h 5.26 V 258.4 h -3.86 c -0.38,1.61 -0.84,2.87 -1.4,3.81 z"
       id="path6"
       style="fill:#3cb371;fill-opacity:1" />
    <path
       class="cls-1"
       d="m 860.04,265.23 c -0.99,-2.02 -2.38,-3.66 -4.17,-4.93 -1.79,-1.27 -4.03,-1.9 -6.72,-1.9 -2.69,0 -4.92,0.64 -6.72,1.9 -1.79,1.27 -3.17,2.91 -4.14,4.93 -0.97,2.01 -1.65,4.17 -2.04,6.47 -0.39,2.29 -0.59,4.6 -0.59,6.91 0,2.31 0.19,4.62 0.59,6.91 0.39,2.29 1.07,4.45 2.04,6.47 0.97,2.02 2.36,3.66 4.14,4.92 1.79,1.27 4.03,1.9 6.72,1.9 2.69,0 4.93,-0.63 6.72,-1.9 1.79,-1.27 3.18,-2.91 4.17,-4.92 0.99,-2.02 1.67,-4.17 2.04,-6.47 0.37,-2.3 0.56,-4.6 0.56,-6.91 0,-2.31 -0.19,-4.62 -0.56,-6.91 -0.37,-2.3 -1.05,-4.45 -2.04,-6.47 z m -4.7,25.05 c -1.36,2.74 -3.42,4.11 -6.19,4.11 -2.77,0 -4.82,-1.37 -6.18,-4.11 -1.36,-2.74 -2.04,-6.64 -2.04,-11.67 0,-5.03 0.68,-8.93 2.04,-11.67 1.36,-2.75 3.42,-4.12 6.18,-4.12 2.76,0 4.82,1.37 6.19,4.12 1.36,2.74 2.04,6.63 2.04,11.67 0,5.04 -0.68,8.93 -2.04,11.67 z"
       id="path7"
       style="fill:#3cb371;fill-opacity:1" />
    <path
       class="cls-1"
       d="m 879.55,262.2 c -0.56,0.93 -1.23,1.64 -2.02,2.13 -0.78,0.48 -1.71,0.84 -2.8,1.06 -1.09,0.22 -2.54,0.39 -4.36,0.51 v 3.92 h 9.18 v 27.94 h 5.26 V 258.4 h -3.86 c -0.37,1.61 -0.84,2.87 -1.4,3.81 z"
       id="path8"
       style="fill:#3cb371;fill-opacity:1" />
    <path
       class="cls-1"
       d="m 922.3,265.23 c -0.99,-2.02 -2.38,-3.66 -4.17,-4.93 -1.79,-1.27 -4.03,-1.9 -6.72,-1.9 -2.69,0 -4.93,0.64 -6.72,1.9 -1.79,1.27 -3.17,2.91 -4.14,4.93 -0.97,2.01 -1.65,4.17 -2.04,6.47 -0.39,2.29 -0.59,4.6 -0.59,6.91 0,2.31 0.2,4.62 0.59,6.91 0.39,2.29 1.07,4.45 2.04,6.47 0.97,2.02 2.35,3.66 4.14,4.92 1.79,1.27 4.03,1.9 6.72,1.9 2.69,0 4.93,-0.63 6.72,-1.9 1.79,-1.27 3.18,-2.91 4.17,-4.92 0.99,-2.01 1.67,-4.17 2.04,-6.47 0.37,-2.3 0.56,-4.6 0.56,-6.91 0,-2.31 -0.19,-4.62 -0.56,-6.91 -0.37,-2.3 -1.05,-4.45 -2.04,-6.47 z m -4.7,25.05 c -1.37,2.74 -3.43,4.11 -6.19,4.11 -2.76,0 -4.82,-1.37 -6.19,-4.11 -1.36,-2.74 -2.04,-6.64 -2.04,-11.67 0,-5.03 0.68,-8.93 2.04,-11.67 1.36,-2.75 3.42,-4.12 6.19,-4.12 2.77,0 4.82,1.37 6.19,4.12 1.36,2.74 2.04,6.63 2.04,11.67 0,5.04 -0.68,8.93 -2.04,11.67 z"
       id="path9"
       style="fill:#3cb371;fill-opacity:1" />
    <path
       class="cls-1"
       d="m 941.81,262.2 c -0.56,0.93 -1.23,1.64 -2.02,2.13 -0.78,0.48 -1.71,0.84 -2.8,1.06 -1.09,0.22 -2.54,0.39 -4.37,0.51 v 3.92 h 9.18 v 27.94 h 5.26 V 258.4 h -3.86 c -0.37,1.61 -0.84,2.87 -1.4,3.81 z"
       id="path10"
       style="fill:#3cb371;fill-opacity:1" />
    <path
       class="cls-1"
       d="m 817.29,329.38 c -0.56,0.93 -1.23,1.64 -2.02,2.13 -0.78,0.48 -1.72,0.84 -2.8,1.06 -1.08,0.22 -2.54,0.39 -4.36,0.51 V 337 h 9.18 v 27.94 h 5.26 v -39.36 h -3.86 c -0.38,1.61 -0.84,2.87 -1.4,3.81 z"
       id="path11"
       style="fill:#3cb371;fill-opacity:1" />
    <path
       class="cls-1"
       d="m 860.04,332.41 c -0.99,-2.02 -2.38,-3.66 -4.17,-4.93 -1.79,-1.27 -4.03,-1.9 -6.72,-1.9 -2.69,0 -4.92,0.64 -6.72,1.9 -1.79,1.27 -3.17,2.91 -4.14,4.93 -0.97,2.01 -1.65,4.17 -2.04,6.47 -0.39,2.29 -0.59,4.6 -0.59,6.91 0,2.31 0.19,4.62 0.59,6.91 0.39,2.29 1.07,4.45 2.04,6.47 0.97,2.02 2.36,3.66 4.14,4.92 1.79,1.27 4.03,1.9 6.72,1.9 2.69,0 4.93,-0.63 6.72,-1.9 1.79,-1.27 3.18,-2.91 4.17,-4.92 0.99,-2.02 1.67,-4.17 2.04,-6.47 0.37,-2.3 0.56,-4.6 0.56,-6.91 0,-2.31 -0.19,-4.62 -0.56,-6.91 -0.37,-2.3 -1.05,-4.45 -2.04,-6.47 z m -4.7,25.05 c -1.36,2.74 -3.42,4.11 -6.19,4.11 -2.77,0 -4.82,-1.37 -6.18,-4.11 -1.36,-2.74 -2.04,-6.64 -2.04,-11.67 0,-5.03 0.68,-8.93 2.04,-11.67 1.36,-2.75 3.42,-4.12 6.18,-4.12 2.76,0 4.82,1.37 6.19,4.12 1.36,2.74 2.04,6.63 2.04,11.67 0,5.04 -0.68,8.93 -2.04,11.67 z"
       id="path12"
       style="fill:#3cb371;fill-opacity:1" />
    <path
       class="cls-1"
       d="m 879.55,329.38 c -0.56,0.93 -1.23,1.64 -2.02,2.13 -0.78,0.48 -1.71,0.84 -2.8,1.06 -1.09,0.22 -2.54,0.39 -4.36,0.51 V 337 h 9.18 v 27.94 h 5.26 v -39.36 h -3.86 c -0.37,1.61 -0.84,2.87 -1.4,3.81 z"
       id="path13"
       style="fill:#3cb371;fill-opacity:1" />
    <path
       class="cls-1"
       d="m 922.3,332.41 c -0.99,-2.02 -2.38,-3.66 -4.17,-4.93 -1.79,-1.27 -4.03,-1.9 -6.72,-1.9 -2.69,0 -4.93,0.64 -6.72,1.9 -1.79,1.27 -3.17,2.91 -4.14,4.93 -0.97,2.01 -1.65,4.17 -2.04,6.47 -0.39,2.29 -0.59,4.6 -0.59,6.91 0,2.31 0.2,4.62 0.59,6.91 0.39,2.29 1.07,4.45 2.04,6.47 0.97,2.02 2.35,3.66 4.14,4.92 1.79,1.27 4.03,1.9 6.72,1.9 2.69,0 4.93,-0.63 6.72,-1.9 1.79,-1.27 3.18,-2.91 4.17,-4.92 0.99,-2.01 1.67,-4.17 2.04,-6.47 0.37,-2.3 0.56,-4.6 0.56,-6.91 0,-2.31 -0.19,-4.62 -0.56,-6.91 -0.37,-2.3 -1.05,-4.45 -2.04,-6.47 z m -4.7,25.05 c -1.37,2.74 -3.43,4.11 -6.19,4.11 -2.76,0 -4.82,-1.37 -6.19,-4.11 -1.36,-2.74 -2.04,-6.64 -2.04,-11.67 0,-5.03 0.68,-8.93 2.04,-11.67 1.36,-2.75 3.42,-4.12 6.19,-4.12 2.77,0 4.82,1.37 6.19,4.12 1.36,2.74 2.04,6.63 2.04,11.67 0,5.04 -0.68,8.93 -2.04,11.67 z"
       id="path14"
       style="fill:#3cb371;fill-opacity:1" />
    <path
       class="cls-1"
       d="m 941.81,329.38 c -0.56,0.93 -1.23,1.64 -2.02,2.13 -0.78,0.48 -1.71,0.84 -2.8,1.06 -1.09,0.22 -2.54,0.39 -4.37,0.51 V 337 h 9.18 v 27.94 h 5.26 v -39.36 h -3.86 c -0.37,1.61 -0.84,2.87 -1.4,3.81 z"
       id="path15"
       style="fill:#3cb371;fill-opacity:1" />
    <path
       class="cls-1"
       d="m 788.76,365.88 c 1.88,-0.23 3.5,-0.83 4.86,-1.79 1.79,-1.27 3.18,-2.91 4.17,-4.92 0.99,-2.02 1.67,-4.17 2.04,-6.47 0.37,-2.3 0.56,-4.6 0.56,-6.91 0,-2.31 -0.19,-4.62 -0.56,-6.91 -0.37,-2.3 -1.05,-4.45 -2.04,-6.47 -0.99,-2.02 -2.38,-3.66 -4.17,-4.93 -1.36,-0.96 -2.98,-1.56 -4.86,-1.79 V 298.7 c 1.88,-0.23 3.5,-0.83 4.86,-1.79 1.79,-1.27 3.18,-2.91 4.17,-4.92 0.99,-2.02 1.67,-4.17 2.04,-6.47 0.37,-2.3 0.56,-4.6 0.56,-6.91 0,-2.31 -0.19,-4.62 -0.56,-6.91 -0.37,-2.3 -1.05,-4.45 -2.04,-6.47 -0.99,-2.02 -2.38,-3.66 -4.17,-4.93 -1.36,-0.96 -2.98,-1.56 -4.86,-1.79 v -26.99 c 1.88,-0.23 3.5,-0.83 4.86,-1.79 1.79,-1.27 3.18,-2.91 4.17,-4.92 0.99,-2.02 1.67,-4.17 2.04,-6.47 0.37,-2.3 0.56,-4.6 0.56,-6.91 0,-2.31 -0.19,-4.62 -0.56,-6.91 -0.37,-2.3 -1.05,-4.45 -2.04,-6.47 -0.99,-2.02 -2.38,-3.66 -4.17,-4.93 -1.36,-0.96 -2.98,-1.56 -4.86,-1.79 v -5.99 c -102.36,0 -185.33,82.98 -185.33,185.33 0,102.35 82.98,185.33 185.33,185.33 102.35,0 185.33,-82.98 185.33,-185.33 H 788.76 v -4.78 z m 4.32,-31.76 c 1.36,2.74 2.04,6.63 2.04,11.67 0,5.04 -0.68,8.93 -2.04,11.67 -1.04,2.08 -2.48,3.37 -4.32,3.87 v -31.08 c 1.84,0.5 3.29,1.78 4.32,3.87 z m 0,-67.19 c 1.36,2.74 2.04,6.63 2.04,11.67 0,5.04 -0.68,8.93 -2.04,11.67 -1.04,2.08 -2.48,3.37 -4.32,3.87 v -31.08 c 1.84,0.5 3.29,1.78 4.32,3.87 z m 0,-67.18 c 1.36,2.74 2.04,6.63 2.04,11.67 0,5.04 -0.68,8.93 -2.04,11.67 -1.04,2.08 -2.48,3.37 -4.32,3.87 v -31.08 c 1.84,0.5 3.29,1.78 4.32,3.87 z"
       id="path16"
       style="fill:#3cb371;fill-opacity:1" />
    <path
       class="cls-1"
       d="M 974.09,0 C 871.73,0 788.76,82.98 788.76,185.33 h 185.33 v 5.9 c -0.14,0 -0.28,-0.03 -0.43,-0.03 -2.69,0 -4.93,0.64 -6.72,1.9 -1.79,1.27 -3.18,2.91 -4.14,4.93 -0.97,2.01 -1.65,4.17 -2.05,6.47 -0.39,2.29 -0.59,4.6 -0.59,6.91 0,2.31 0.2,4.62 0.59,6.91 0.39,2.29 1.07,4.45 2.05,6.47 0.97,2.02 2.35,3.66 4.14,4.92 1.79,1.27 4.03,1.9 6.72,1.9 0.15,0 0.28,-0.02 0.43,-0.03 v 26.81 c -0.14,0 -0.28,-0.03 -0.43,-0.03 -2.69,0 -4.93,0.64 -6.72,1.9 -1.79,1.27 -3.18,2.91 -4.14,4.93 -0.97,2.01 -1.65,4.17 -2.05,6.47 -0.39,2.29 -0.59,4.6 -0.59,6.91 0,2.31 0.2,4.62 0.59,6.91 0.39,2.29 1.07,4.45 2.05,6.47 0.97,2.02 2.35,3.66 4.14,4.92 1.79,1.27 4.03,1.9 6.72,1.9 0.15,0 0.28,-0.02 0.43,-0.03 v 26.81 c -0.14,0 -0.28,-0.03 -0.43,-0.03 -2.69,0 -4.93,0.64 -6.72,1.9 -1.79,1.27 -3.18,2.91 -4.14,4.93 -0.97,2.01 -1.65,4.17 -2.05,6.47 -0.39,2.29 -0.59,4.6 -0.59,6.91 0,2.31 0.2,4.62 0.59,6.91 0.39,2.29 1.07,4.45 2.05,6.47 0.97,2.02 2.35,3.66 4.14,4.92 1.79,1.27 4.03,1.9 6.72,1.9 0.15,0 0.28,-0.02 0.43,-0.03 v 4.7 c 102.36,0 185.33,-82.98 185.33,-185.33 C 1159.42,82.92 1076.45,0 974.09,0 Z m -0.43,227.21 c -2.77,0 -4.83,-1.37 -6.19,-4.11 -1.36,-2.74 -2.05,-6.64 -2.05,-11.67 0,-5.03 0.68,-8.93 2.05,-11.67 1.36,-2.75 3.42,-4.12 6.19,-4.12 0.15,0 0.28,0.05 0.43,0.06 v 31.46 c -0.15,0 -0.27,0.06 -0.43,0.06 z m 0,67.18 c -2.77,0 -4.83,-1.37 -6.19,-4.11 -1.36,-2.74 -2.05,-6.64 -2.05,-11.67 0,-5.03 0.68,-8.93 2.05,-11.67 1.36,-2.75 3.42,-4.12 6.19,-4.12 0.15,0 0.28,0.05 0.43,0.06 v 31.46 c -0.15,0 -0.27,0.06 -0.43,0.06 z m 0,67.19 c -2.77,0 -4.83,-1.37 -6.19,-4.11 -1.36,-2.74 -2.05,-6.64 -2.05,-11.67 0,-5.03 0.68,-8.93 2.05,-11.67 1.36,-2.75 3.42,-4.12 6.19,-4.12 0.15,0 0.28,0.05 0.43,0.06 v 31.46 c -0.15,0 -0.27,0.06 -0.43,0.06 z"
       id="path17"
       style="fill:#3cb371;fill-opacity:1" />
    <path
       class="cls-1"
       d="m 226.33,211.16 c -4.04,-22.9 -12.12,-47.15 -63.32,-47.15 -51.2,0 -57.93,19.54 -57.93,35.03 0,56.58 224.31,15.49 224.31,147.52 0,104.41 -101.04,123.27 -156.95,123.27 C 90.94,469.83 2.69,441.54 0,345.89 h 97 c 0,30.31 18.86,52.54 78.14,52.54 48.5,0 59.95,-23.58 59.95,-37.05 0,-59.95 -222.29,-14.82 -222.29,-148.87 0,-52.54 33.01,-119.9 144.82,-119.9 70.06,0 153.58,17.52 160.99,118.56 h -92.28 z"
       id="path18"
       style="fill:#3cb371;fill-opacity:1" />
    <path
       class="cls-1"
       d="m 476.22,102.04 h 58.6 v 67.36 h -58.6 v 194.67 c 0,20.88 0.67,28.97 39.07,28.97 6.06,0 12.8,-0.67 19.53,-1.35 v 71.4 c -14.82,0.67 -29.64,1.35 -44.46,1.35 h -12.12 c -81.51,0 -96.33,-30.99 -96.33,-77.46 V 169.4 h -48.5 v -67.36 h 48.5 v -97 h 94.3 v 97 z"
       id="path19"
       style="fill:#3cb371;fill-opacity:1" />
    <path
       class="cls-1"
       d="m 1205.02,102.04 h 90.26 v 61.97 h 1.35 c 19.54,-36.37 41.09,-71.4 98.35,-71.4 6.06,0 12.12,0.67 18.19,1.35 v 95.65 c -8.08,-1.35 -18.19,-1.35 -26.94,-1.35 -73.42,0 -86.9,45.81 -86.9,85.55 V 460.4 h -94.3 V 102.04 Z"
       id="path20"
       style="fill:#3cb371;fill-opacity:1" />
    <path
       class="cls-1"
       d="m 1952.7,460.39 h -94.3 V 242.82 c 0,-53.22 -23.58,-70.73 -51.19,-70.73 -47.15,0 -63.99,30.99 -63.99,73.42 v 214.88 h -94.3 V 244.84 c 0,-30.31 0,-72.75 -56.58,-72.75 -44.46,0 -58.6,30.99 -58.6,70.05 v 218.25 h -94.3 V 102.04 h 90.26 v 52.54 h 1.35 c 12.12,-23.58 38.4,-61.97 101.71,-61.97 51.87,0 75.44,18.86 99.69,57.26 12.12,-17.51 38.39,-57.26 95.65,-57.26 70.05,0 124.62,41.09 124.62,119.9 V 460.4 Z"
       id="path21"
       style="fill:#3cb371;fill-opacity:1" />
  </g>
</svg>
