<?xml version="1.0" encoding="UTF-8" standalone="no"?>
<!-- Created with Inkscape (http://www.inkscape.org/) -->

<svg
   width="44.890011mm"
   height="24.658392mm"
   viewBox="0 0 44.890011 24.658392"
   version="1.1"
   id="svg5"
   inkscape:version="1.3 (0e150ed6c4, 2023-07-21)"
   sodipodi:docname="storm-dark.svg"
   inkscape:export-filename="storm-dark.svg"
   inkscape:export-xdpi="96"
   inkscape:export-ydpi="96"
   xmlns:inkscape="http://www.inkscape.org/namespaces/inkscape"
   xmlns:sodipodi="http://sodipodi.sourceforge.net/DTD/sodipodi-0.dtd"
   xmlns:xlink="http://www.w3.org/1999/xlink"
   xmlns="http://www.w3.org/2000/svg"
   xmlns:svg="http://www.w3.org/2000/svg">
  <sodipodi:namedview
     id="namedview7"
     pagecolor="#ffffff"
     bordercolor="#666666"
     borderopacity="1.0"
     inkscape:pageshadow="2"
     inkscape:pageopacity="0.0"
     inkscape:pagecheckerboard="0"
     inkscape:document-units="mm"
     showgrid="false"
     inkscape:zoom="4.9999182"
     inkscape:cx="114.10187"
     inkscape:cy="63.101032"
     inkscape:window-width="1904"
     inkscape:window-height="995"
     inkscape:window-x="8"
     inkscape:window-y="40"
     inkscape:window-maximized="0"
     inkscape:current-layer="g8775"
     inkscape:showpageshadow="2"
     inkscape:deskcolor="#d1d1d1"
     inkscape:export-bgcolor="#ffffff00" />
  <defs
     id="defs2">
    <path
       id="SVGID_1_"
       d="m 301.9,131.3 v 0 c -15.9,20.2 -24.7,45.5 -24.7,71.3 -0.1,36.5 -29.8,66.1 -66.2,66.1 -36,0 -65.4,-28.9 -66.2,-64.7 v -96.3 -0.6 C 142.5,95.6 132.3,87.2 120.5,87.2 106.8,87.2 95.7,98.3 95.7,112 v 90.5 c 0,63.6 51.8,115.3 115.3,115.3 35.4,0 69,-16.5 90.8,-44.2 3.1,3.8 6.7,7.5 9.9,10.7 12.5,12.3 27.2,21.4 43.9,27 12,4 24.4,6.1 36.9,6.1 46.2,0 88.3,-28.2 106.1,-70.7 l 0.1,0.1 1.2,-3.2 c 4.7,-12.2 7.2,-25 7.6,-38.1 v -3.1 c 0,-36.4 29.6,-66 66,-66 36.4,0 66,29.6 66,66 v 81.1 c -0.1,1.7 -0.1,3.2 0,4.5 1,12.7 9.4,23.6 21.5,27.7 8.5,2.9 18,2 25.9,-2.5 6.9,-3.9 12,-10.1 14.5,-17.5 0.4,-1.3 0.8,-2.6 1.1,-4.3 l 0.4,-2.2 -1.9,-1.1 c -9.1,-5.4 -12.4,-12.5 -12.5,-27 v -2.6 -56.2 C 688.5,138.9 636.9,87.2 573.4,87.2 510,87.2 458.3,138.8 458.3,202.3 v 0 c 0,6.8 -1.1,13.5 -3.1,20 l -0.4,1.2 c -9.1,26.8 -34.2,44.9 -62.6,44.9 -7.2,0 -14.3,-1.1 -21.2,-3.5 -34.5,-11.7 -53.1,-49.2 -41.4,-83.7 9.1,-26.9 34.2,-44.9 62.6,-44.9 7.1,0 14.1,1.2 20.5,3.3 0.8,0.3 1.5,0.7 2.3,0.9 2.6,0.9 5.2,1.3 7.9,1.3 10.5,0 19.9,-6.7 23.3,-16.7 2.1,-6.2 1.6,-12.9 -1.3,-18.8 -2.7,-5.5 -7.3,-9.7 -12.9,-11.9 v 0 l -3,-1 c -11.9,-4.1 -24.4,-6.1 -36.9,-6.1 -34.8,0 -68.6,16.5 -90.2,44" />
    <clipPath
       id="SVGID_00000168830874702397088330000011577343275046569908_">
      <use
         xlink:href="#SVGID_1_"
         style="overflow:visible"
         id="use972"
         x="0"
         y="0"
         width="100%"
         height="100%" />
    </clipPath>
  </defs>
  <g
     inkscape:label="Layer 1"
     inkscape:groupmode="layer"
     id="layer1"
     transform="translate(-86.666519,-115.69109)">
    <g
       id="g8775"
       inkscape:export-filename="/tmp/storm.png"
       inkscape:export-xdpi="96"
       inkscape:export-ydpi="96">
      <rect
         style="font-variation-settings:'wght' 700;fill:#1b1b1b;fill-opacity:1;stroke:none;stroke-width:0.198247;stroke-opacity:1"
         id="rect1"
         width="44.890011"
         height="24.658392"
         x="86.666519"
         y="115.69109"
         inkscape:export-filename="storm-dark.svg"
         inkscape:export-xdpi="96"
         inkscape:export-ydpi="96" />
      <path
         d="m 100.62104,125.93514 c 0,-3.8678 2.82619,-7.07479 6.52972,-7.6684 0.33974,-0.0523 0.63841,0.224 0.63841,0.57121 v 2.36324 c 0,0.31361 0.24268,0.57121 0.54881,0.61601 3.74461,0.55255 6.61932,3.78194 6.61932,7.67961 0,3.86781 -2.82618,7.0748 -6.52971,7.66841 -0.34348,0.056 -0.63842,-0.22027 -0.63842,-0.56748 v -2.36697 c 0,-0.31361 -0.24267,-0.57122 -0.54881,-0.61602 -3.7446,-0.55254 -6.61932,-3.78193 -6.61932,-7.67961 z m 10.7522,1.79204 a 3.5840666,3.5840666 0 1 0 -7.16813,0 3.5840666,3.5840666 0 1 0 7.16813,0 z m -3.58407,-1.19469 a 1.19469,1.19469 0 1 1 0,2.38938 1.19469,1.19469 0 1 1 0,-2.38938 z"
         id="path840"
         style="fill:#ffffff;fill-opacity:1;stroke:none;stroke-width:0.037334" />
      <path
         class="st0"
         d="m 93.399689,136.27419 c 0,0.20758 -0.16729,0.37487 -0.374867,0.37487 -0.20759,0 -0.37487,-0.16851 -0.37487,-0.37487 0,-0.20759 0.16851,-0.37487 0.37487,-0.37487 0.207577,-10e-4 0.374867,0.16728 0.374867,0.37487"
         id="path965"
         style="stroke:none;stroke-width:0.0122108" />
      <rect
         x="95.699997"
         y="87.300003"
         style="fill:#5497a0;fill-opacity:1;stroke:none;stroke-width:0.982737;stroke-miterlimit:4;stroke-dasharray:none"
         width="607.40002"
         height="231.39999"
         clip-path="url(#SVGID_00000168830874702397088330000011577343275046569908_)"
         id="rect980"
         transform="matrix(0.01221079,0,0,0.01221079,86.025625,133.82104)" />
      <path
         class="st0"
         d="m 113.39749,119.87511 v -0.98993 l -0.294,0.51357 H 112.776 l -0.294,-0.51357 v 0.98993 h -0.50985 v -2.06918 h 0.49868 l 0.46519,0.91178 0.4652,-0.91178 h 0.49868 v 2.06918 z"
         id="path943"
         style="stroke:none;stroke-width:0.0372154" />
      <path
         class="st0"
         d="m 114.39859,119.87511 v -2.06918 h 1.40674 v 0.45403 h -0.90061 v 0.3461 h 0.76664 v 0.45403 h -0.76664 v 0.36471 h 0.90061 v 0.45403 h -1.40674 z m 0.83362,-2.27758 h -0.33866 l 0.1898,-0.52474 h 0.44659 z"
         id="path945"
         style="stroke:none;stroke-width:0.0372154" />
      <path
         class="st0"
         d="m 117.62888,119.23872 c 0,0.10421 -0.0223,0.19725 -0.0633,0.27912 -0.0409,0.0819 -0.10048,0.14886 -0.17119,0.20468 -0.0744,0.0558 -0.15631,0.0968 -0.25307,0.12654 -0.0968,0.0298 -0.20096,0.0409 -0.30888,0.0409 -0.0782,0 -0.15631,-0.004 -0.22702,-0.0149 -0.0707,-0.0112 -0.14142,-0.0223 -0.20468,-0.0447 -0.0633,-0.0223 -0.12654,-0.0484 -0.18608,-0.0819 -0.0595,-0.0335 -0.11537,-0.0782 -0.16747,-0.13398 l 0.3275,-0.3275 c 0.0558,0.0558 0.12281,0.093 0.2084,0.11165 0.0856,0.0223 0.17119,0.0335 0.25307,0.0335 0.19724,0 0.29772,-0.0633 0.29772,-0.18607 0,-0.0521 -0.0149,-0.093 -0.0409,-0.12281 -0.0298,-0.0298 -0.0744,-0.0484 -0.13769,-0.0558 l -0.24935,-0.0335 c -0.18235,-0.026 -0.32377,-0.0893 -0.41681,-0.18236 -0.0968,-0.0968 -0.14142,-0.23445 -0.14142,-0.41681 0,-0.0968 0.0186,-0.18235 0.0521,-0.26051 0.0335,-0.0781 0.0856,-0.14886 0.14887,-0.2084 0.0633,-0.0596 0.14514,-0.1042 0.23817,-0.1377 0.093,-0.0335 0.19725,-0.0484 0.31633,-0.0484 0.14887,0 0.27912,0.0186 0.39449,0.0558 0.11537,0.0372 0.21585,0.10049 0.30516,0.1898 l -0.32005,0.32006 c -0.0558,-0.0558 -0.11164,-0.0893 -0.17491,-0.10049 -0.0633,-0.0149 -0.13398,-0.0186 -0.21957,-0.0186 -0.0447,0 -0.0819,0.007 -0.11165,0.0186 -0.0298,0.0112 -0.0558,0.026 -0.0782,0.0447 -0.0223,0.0186 -0.0335,0.0372 -0.0447,0.0595 -0.0112,0.0223 -0.0149,0.0447 -0.0149,0.067 0,0.0149 0.004,0.0298 0.007,0.0447 0.004,0.0149 0.0149,0.0335 0.0335,0.0484 0.0149,0.0149 0.0335,0.026 0.0521,0.0372 0.0223,0.0112 0.0521,0.0186 0.0893,0.0223 l 0.24934,0.0335 c 0.18236,0.026 0.31633,0.0819 0.40565,0.17119 0.0558,0.0558 0.0968,0.11909 0.11909,0.19352 0.0223,0.0744 0.0335,0.17491 0.0335,0.27167 z"
         id="path947"
         style="stroke:none;stroke-width:0.0372154" />
      <path
         class="st0"
         d="m 119.54548,118.8368 c 0,0.0893 0,0.16747 -0.004,0.24562 -0.004,0.0782 -0.0112,0.14886 -0.0223,0.21957 -0.0149,0.0707 -0.0335,0.13398 -0.0633,0.19352 -0.0298,0.0596 -0.0707,0.11537 -0.12281,0.16747 -0.0744,0.0744 -0.15631,0.13025 -0.24562,0.16747 -0.0893,0.0372 -0.20097,0.0595 -0.3275,0.0595 -0.12653,0 -0.23818,-0.0186 -0.32749,-0.0595 -0.0893,-0.0372 -0.17492,-0.0968 -0.24562,-0.16747 -0.0521,-0.0521 -0.093,-0.10792 -0.12282,-0.16747 -0.0298,-0.0595 -0.0521,-0.12653 -0.0633,-0.19352 -0.0149,-0.067 -0.0223,-0.14142 -0.0223,-0.21957 0,-0.0781 -0.004,-0.16003 -0.004,-0.24562 0,-0.0856 0,-0.16747 0.004,-0.24562 0.004,-0.0782 0.0112,-0.14886 0.0223,-0.21957 0.0149,-0.067 0.0335,-0.13398 0.0633,-0.19352 0.0298,-0.0596 0.0707,-0.11537 0.12282,-0.16747 0.0744,-0.0744 0.1563,-0.13026 0.24562,-0.16747 0.093,-0.0372 0.20096,-0.0595 0.32749,-0.0595 0.12653,0 0.23818,0.0186 0.3275,0.0595 0.093,0.0372 0.17491,0.0968 0.24562,0.16747 0.0521,0.0521 0.093,0.10792 0.12281,0.16747 0.0298,0.0595 0.0521,0.12653 0.0633,0.19352 0.0149,0.0707 0.0223,0.14141 0.0223,0.21957 0.004,0.0782 0.004,0.16002 0.004,0.24562 z m -0.50985,0 c 0,-0.093 0,-0.17119 -0.007,-0.23074 -0.004,-0.0595 -0.007,-0.10792 -0.0149,-0.14142 -0.007,-0.0335 -0.0149,-0.0633 -0.0223,-0.0819 -0.0112,-0.0186 -0.0186,-0.0372 -0.0335,-0.0521 -0.0186,-0.026 -0.0447,-0.0447 -0.0819,-0.0633 -0.0335,-0.0186 -0.0744,-0.026 -0.12281,-0.026 -0.0484,0 -0.0856,0.007 -0.12281,0.026 -0.0335,0.0186 -0.0633,0.0372 -0.0819,0.0633 -0.0112,0.0149 -0.0223,0.0335 -0.0335,0.0521 -0.0112,0.0186 -0.0186,0.0484 -0.0223,0.0819 -0.004,0.0335 -0.0112,0.0819 -0.0149,0.14142 -0.004,0.0596 -0.007,0.1377 -0.007,0.23074 0,0.0968 0.004,0.17119 0.007,0.23073 0.004,0.0596 0.007,0.10421 0.0149,0.14142 0.007,0.0372 0.0149,0.0633 0.0223,0.0819 0.0112,0.0186 0.0186,0.0372 0.0335,0.0521 0.0186,0.026 0.0484,0.0484 0.0819,0.067 0.0335,0.0186 0.0744,0.0298 0.12281,0.0298 0.0484,0 0.0856,-0.007 0.12281,-0.0298 0.0335,-0.0186 0.0633,-0.0409 0.0819,-0.067 0.0112,-0.0149 0.0223,-0.0335 0.0335,-0.0521 0.0112,-0.0186 0.0186,-0.0484 0.0223,-0.0819 0.007,-0.0372 0.0112,-0.0819 0.0149,-0.14142 0.007,-0.0595 0.007,-0.13397 0.007,-0.23073 z"
         id="path949"
         style="stroke:none;stroke-width:0.0372154" />
      <path
         class="st0"
         d="m 121.47323,119.2164 c -0.0186,0.11536 -0.0521,0.21212 -0.10048,0.29772 -0.0484,0.0856 -0.1042,0.1563 -0.17491,0.21213 -0.0707,0.0558 -0.14514,0.0968 -0.23073,0.12653 -0.0856,0.026 -0.17864,0.0409 -0.27912,0.0409 -0.12653,0 -0.23818,-0.0186 -0.3275,-0.0596 -0.093,-0.0372 -0.17491,-0.0968 -0.24562,-0.16747 -0.0521,-0.0521 -0.093,-0.10792 -0.12281,-0.16747 -0.0298,-0.0595 -0.0521,-0.12653 -0.0633,-0.19352 -0.0149,-0.067 -0.0223,-0.14142 -0.0223,-0.21957 -0.004,-0.0781 -0.004,-0.16002 -0.004,-0.24562 0,-0.0856 0,-0.16747 0.004,-0.24562 0.004,-0.0781 0.0112,-0.14886 0.0223,-0.21957 0.0149,-0.067 0.0335,-0.13398 0.0633,-0.19352 0.0298,-0.0596 0.0707,-0.11537 0.12281,-0.16747 0.0744,-0.0744 0.15631,-0.13026 0.24562,-0.16747 0.0893,-0.0372 0.20097,-0.0596 0.3275,-0.0596 0.10048,0 0.1898,0.0149 0.27912,0.0409 0.0893,0.026 0.16374,0.0707 0.23073,0.12653 0.0707,0.0558 0.12653,0.12654 0.17491,0.21213 0.0447,0.0856 0.0782,0.18236 0.10048,0.29772 h -0.51729 c -0.0149,-0.0595 -0.0409,-0.10792 -0.0819,-0.15258 -0.0372,-0.0447 -0.10048,-0.067 -0.18236,-0.067 -0.0447,0 -0.0856,0.007 -0.11909,0.026 -0.0335,0.0149 -0.0595,0.0372 -0.0781,0.0633 -0.0112,0.0149 -0.0223,0.0335 -0.0335,0.0521 -0.0112,0.0186 -0.0186,0.0484 -0.0261,0.0856 -0.007,0.0372 -0.0112,0.0856 -0.0149,0.14514 -0.004,0.0595 -0.007,0.13769 -0.007,0.23073 0,0.0968 0,0.17119 0.007,0.23074 0.004,0.0595 0.007,0.10792 0.0149,0.14514 0.007,0.0372 0.0149,0.067 0.0261,0.0856 0.0112,0.0186 0.0186,0.0372 0.0335,0.0521 0.0186,0.026 0.0447,0.0446 0.0781,0.0633 0.0335,0.0149 0.0744,0.026 0.11909,0.026 0.0819,0 0.14514,-0.0223 0.18236,-0.067 0.0372,-0.0447 0.067,-0.0968 0.0819,-0.15258 h 0.51729 z"
         id="path951"
         style="stroke:none;stroke-width:0.0372154" />
      <path
         class="st0"
         d="m 121.81562,119.87511 v -2.06918 h 1.40674 v 0.45403 h -0.90061 v 0.3461 h 0.76663 v 0.45403 h -0.76663 v 0.36471 h 0.90061 v 0.45403 h -1.40674 z"
         id="path953"
         style="stroke:none;stroke-width:0.0372154" />
      <path
         class="st0"
         d="m 124.83006,119.87511 -0.66243,-1.04203 v 1.04203 h -0.50985 v -2.06918 h 0.44658 l 0.66244,1.04203 v -1.04203 h 0.50613 v 2.06918 z"
         id="path955"
         style="stroke:none;stroke-width:0.0372154" />
      <path
         class="st0"
         d="m 126.66106,118.25624 v 1.61887 h -0.50985 v -1.61887 h -0.50985 v -0.45403 h 1.52583 v 0.45403 z"
         id="path957"
         style="stroke:none;stroke-width:0.0372154" />
      <path
         class="st0"
         d="m 128.5851,119.87511 -0.36472,-0.77036 h -0.17119 v 0.77036 h -0.50985 v -2.06918 h 0.81874 c 0.11537,0 0.21585,0.0186 0.30517,0.0558 0.0893,0.0372 0.16002,0.0893 0.21957,0.14886 0.0595,0.0633 0.1042,0.13397 0.13397,0.21212 0.0298,0.0782 0.0447,0.16375 0.0447,0.24563 0,0.0707 -0.0112,0.13397 -0.0298,0.19352 -0.0186,0.0595 -0.0447,0.10792 -0.0781,0.15258 -0.0335,0.0447 -0.067,0.0819 -0.10793,0.11537 -0.0409,0.0335 -0.0781,0.0595 -0.11909,0.0782 l 0.44659,0.8634 h -0.588 z m -0.0261,-1.40674 c 0,-0.0558 -0.0186,-0.10421 -0.0595,-0.14514 -0.0372,-0.0409 -0.093,-0.0633 -0.16375,-0.0633 h -0.28656 v 0.42053 h 0.28656 c 0.0707,0 0.12281,-0.0223 0.16375,-0.0633 0.0372,-0.0447 0.0595,-0.093 0.0595,-0.14886 z"
         id="path959"
         style="stroke:none;stroke-width:0.0372154" />
      <path
         class="st0"
         d="m 129.50804,119.87511 v -2.06918 h 1.40674 v 0.45403 h -0.90061 v 0.3461 h 0.76663 v 0.45403 h -0.76663 v 0.36471 h 0.90061 v 0.45403 h -1.40674 z"
         id="path961"
         style="stroke:none;stroke-width:0.0372154" />
      <path
         d="m 93.355277,129.77174 q 0,1.0697 -0.795814,1.63814 -0.790647,0.56327 -2.325432,0.56327 -1.400427,0 -2.196242,-0.49609 -0.795814,-0.4961 -1.02319,-1.50378 l 1.472774,-0.24288 q 0.149861,0.57877 0.583942,0.84232 0.43408,0.25838 1.204057,0.25838 1.596796,0 1.596796,-0.97151 0,-0.31006 -0.186034,-0.5116 -0.180867,-0.20153 -0.516763,-0.33589 -0.330728,-0.13436 -1.276404,-0.32556 -0.816485,-0.1912 -1.136878,-0.30489 -0.320392,-0.11886 -0.578774,-0.27389 -0.258381,-0.16019 -0.439248,-0.3824 -0.180867,-0.22221 -0.28422,-0.52193 -0.09818,-0.29972 -0.09818,-0.68729 0,-0.98702 0.73897,-1.50895 0.744138,-0.5271 2.160068,-0.5271 1.353918,0 2.030877,0.42375 0.682127,0.42374 0.878497,1.40042 l -1.477941,0.20154 q -0.113688,-0.47025 -0.465087,-0.70796 -0.346231,-0.23772 -0.997352,-0.23772 -1.384924,0 -1.384924,0.86817 0,0.28422 0.144694,0.46508 0.149861,0.18087 0.439248,0.31006 0.289387,0.12402 1.173052,0.31523 1.049028,0.2222 1.498611,0.41341 0.454751,0.18603 0.7183,0.43924 0.263549,0.24805 0.403075,0.59945 0.139526,0.34623 0.139526,0.80098 z m 4.407986,-4.00491 v 6.10297 h -1.52445 v -6.10297 h -2.35127 v -1.17822 h 6.232157 v 1.17822 z"
         id="text2012"
         style="font-weight:bold;font-size:10.5833px;line-height:1.25;font-family:'Liberation Sans';-inkscape-font-specification:'Liberation Sans, Bold';fill:#ffffff;fill-opacity:1;stroke:none;stroke-width:0.264583"
         aria-label="ST" />
      <path
         d="m 120.92112,131.92271 -1.68981,-2.76468 h -1.788 v 2.76468 h -1.52445 v -7.28118 h 3.63801 q 1.30224,0 2.0102,0.56327 0.70797,0.5581 0.70797,1.60713 0,0.76481 -0.43408,1.32291 -0.43408,0.55294 -1.17305,0.72864 l 1.96886,3.05923 z m -0.18087,-5.04877 q 0,-1.04903 -1.34358,-1.04903 h -1.95336 v 2.14974 h 1.9947 q 0.64079,0 0.97151,-0.28939 0.33073,-0.28939 0.33073,-0.81132 z m 8.86765,5.04877 v -4.41315 q 0,-0.14986 0,-0.29972 0.005,-0.14986 0.0517,-1.28674 -0.36691,1.39009 -0.5426,1.93786 l -1.31258,4.06175 h -1.0852 l -1.31258,-4.06175 -0.55294,-1.93786 q 0.062,1.19889 0.062,1.58646 v 4.41315 h -1.35391 v -7.28118 h 2.04121 l 1.30224,4.07209 0.11369,0.39274 0.24805,0.97668 0.32556,-1.16788 1.33841,-4.27363 h 2.03088 v 7.28118 z"
         id="text3786"
         style="font-weight:bold;font-size:10.5833px;line-height:1.25;font-family:'Liberation Sans';-inkscape-font-specification:'Liberation Sans, Bold';fill:#ffffff;fill-opacity:1;stroke:none;stroke-width:0.264583"
         aria-label="RM" />
    </g>
  </g>
  <style
     type="text/css"
     id="style941">&#10;	.st0{fill:#5497A0;}&#10;	&#10;		.st1{clip-path:url(#SVGID_00000090269743448219021940000006031872350393876404_);fill:url(#SVGID_00000183243709503626271370000006372045512019595192_);}&#10;	.st2{opacity:0.9;fill:url(#SVGID_00000025416795856952458350000005925631089401273984_);}&#10;	.st3{fill:#CECECD;}&#10;	.st4{fill:#706F6E;}&#10;	.st5{fill:#6F6F6E;}&#10;</style>
</svg>
