<?xml version="1.0" encoding="UTF-8" standalone="no"?>
<!-- Created with Inkscape (http://www.inkscape.org/) -->

<svg
   width="41.529217mm"
   height="18.912104mm"
   viewBox="0 0 41.529217 18.912104"
   version="1.1"
   id="svg5"
   inkscape:version="1.2.2 (b0a8486541, 2022-12-01)"
   sodipodi:docname="logo.svg"
   xmlns:inkscape="http://www.inkscape.org/namespaces/inkscape"
   xmlns:sodipodi="http://sodipodi.sourceforge.net/DTD/sodipodi-0.dtd"
   xmlns:xlink="http://www.w3.org/1999/xlink"
   xmlns="http://www.w3.org/2000/svg"
   xmlns:svg="http://www.w3.org/2000/svg">
  <sodipodi:namedview
     id="namedview7"
     pagecolor="#ffffff"
     bordercolor="#666666"
     borderopacity="1.0"
     inkscape:pageshadow="2"
     inkscape:pageopacity="0.0"
     inkscape:pagecheckerboard="0"
     inkscape:document-units="mm"
     showgrid="false"
     inkscape:zoom="3.5354761"
     inkscape:cx="40.44717"
     inkscape:cy="61.377873"
     inkscape:window-width="1904"
     inkscape:window-height="1115"
     inkscape:window-x="8"
     inkscape:window-y="40"
     inkscape:window-maximized="0"
     inkscape:current-layer="layer1"
     inkscape:showpageshadow="2"
     inkscape:deskcolor="#d1d1d1" />
  <defs
     id="defs2">
    <path
       id="SVGID_1_"
       d="m 301.9,131.3 v 0 c -15.9,20.2 -24.7,45.5 -24.7,71.3 -0.1,36.5 -29.8,66.1 -66.2,66.1 -36,0 -65.4,-28.9 -66.2,-64.7 v -96.3 -0.6 C 142.5,95.6 132.3,87.2 120.5,87.2 106.8,87.2 95.7,98.3 95.7,112 v 90.5 c 0,63.6 51.8,115.3 115.3,115.3 35.4,0 69,-16.5 90.8,-44.2 3.1,3.8 6.7,7.5 9.9,10.7 12.5,12.3 27.2,21.4 43.9,27 12,4 24.4,6.1 36.9,6.1 46.2,0 88.3,-28.2 106.1,-70.7 l 0.1,0.1 1.2,-3.2 c 4.7,-12.2 7.2,-25 7.6,-38.1 v -3.1 c 0,-36.4 29.6,-66 66,-66 36.4,0 66,29.6 66,66 v 81.1 c -0.1,1.7 -0.1,3.2 0,4.5 1,12.7 9.4,23.6 21.5,27.7 8.5,2.9 18,2 25.9,-2.5 6.9,-3.9 12,-10.1 14.5,-17.5 0.4,-1.3 0.8,-2.6 1.1,-4.3 l 0.4,-2.2 -1.9,-1.1 c -9.1,-5.4 -12.4,-12.5 -12.5,-27 v -2.6 -56.2 C 688.5,138.9 636.9,87.2 573.4,87.2 510,87.2 458.3,138.8 458.3,202.3 v 0 c 0,6.8 -1.1,13.5 -3.1,20 l -0.4,1.2 c -9.1,26.8 -34.2,44.9 -62.6,44.9 -7.2,0 -14.3,-1.1 -21.2,-3.5 -34.5,-11.7 -53.1,-49.2 -41.4,-83.7 9.1,-26.9 34.2,-44.9 62.6,-44.9 7.1,0 14.1,1.2 20.5,3.3 0.8,0.3 1.5,0.7 2.3,0.9 2.6,0.9 5.2,1.3 7.9,1.3 10.5,0 19.9,-6.7 23.3,-16.7 2.1,-6.2 1.6,-12.9 -1.3,-18.8 -2.7,-5.5 -7.3,-9.7 -12.9,-11.9 v 0 l -3,-1 c -11.9,-4.1 -24.4,-6.1 -36.9,-6.1 -34.8,0 -68.6,16.5 -90.2,44" />
    <linearGradient
       id="SVGID_00000170974716095025024200000011531892178172189109_"
       gradientUnits="userSpaceOnUse"
       x1="-479.12491"
       y1="373.0134"
       x2="-419.25681"
       y2="338.44849"
       gradientTransform="matrix(0.01221079,0,0,0.01221079,94.57025,117.27576)"
       xlink:href="#SVGID_00000116940738073422813870000016682258116119640491_">
      <stop
         offset="0"
         style="stop-color:#333333;stop-opacity:0"
         id="stop984" />
      <stop
         offset="1"
         style="stop-color:#000000"
         id="stop986" />
    </linearGradient>
    <defs
       id="defs970">
      <path
         id="path1081"
         d="m 301.9,131.3 v 0 c -15.9,20.2 -24.7,45.5 -24.7,71.3 -0.1,36.5 -29.8,66.1 -66.2,66.1 -36,0 -65.4,-28.9 -66.2,-64.7 v -96.3 -0.6 C 142.5,95.6 132.3,87.2 120.5,87.2 106.8,87.2 95.7,98.3 95.7,112 v 90.5 c 0,63.6 51.8,115.3 115.3,115.3 35.4,0 69,-16.5 90.8,-44.2 3.1,3.8 6.7,7.5 9.9,10.7 12.5,12.3 27.2,21.4 43.9,27 12,4 24.4,6.1 36.9,6.1 46.2,0 88.3,-28.2 106.1,-70.7 l 0.1,0.1 1.2,-3.2 c 4.7,-12.2 7.2,-25 7.6,-38.1 v -3.1 c 0,-36.4 29.6,-66 66,-66 36.4,0 66,29.6 66,66 v 81.1 c -0.1,1.7 -0.1,3.2 0,4.5 1,12.7 9.4,23.6 21.5,27.7 8.5,2.9 18,2 25.9,-2.5 6.9,-3.9 12,-10.1 14.5,-17.5 0.4,-1.3 0.8,-2.6 1.1,-4.3 l 0.4,-2.2 -1.9,-1.1 c -9.1,-5.4 -12.4,-12.5 -12.5,-27 v -2.6 -56.2 C 688.5,138.9 636.9,87.2 573.4,87.2 510,87.2 458.3,138.8 458.3,202.3 v 0 c 0,6.8 -1.1,13.5 -3.1,20 l -0.4,1.2 c -9.1,26.8 -34.2,44.9 -62.6,44.9 -7.2,0 -14.3,-1.1 -21.2,-3.5 -34.5,-11.7 -53.1,-49.2 -41.4,-83.7 9.1,-26.9 34.2,-44.9 62.6,-44.9 7.1,0 14.1,1.2 20.5,3.3 0.8,0.3 1.5,0.7 2.3,0.9 2.6,0.9 5.2,1.3 7.9,1.3 10.5,0 19.9,-6.7 23.3,-16.7 2.1,-6.2 1.6,-12.9 -1.3,-18.8 -2.7,-5.5 -7.3,-9.7 -12.9,-11.9 v 0 l -3,-1 c -11.9,-4.1 -24.4,-6.1 -36.9,-6.1 -34.8,0 -68.6,16.5 -90.2,44" />
    </defs>
    <clipPath
       id="SVGID_00000168830874702397088330000011577343275046569908_">
      <use
         xlink:href="#SVGID_1_"
         style="overflow:visible"
         id="use972"
         x="0"
         y="0"
         width="100%"
         height="100%" />
    </clipPath>
    <linearGradient
       id="SVGID_00000116940738073422813870000016682258116119640491_"
       gradientUnits="userSpaceOnUse"
       x1="-261.686"
       y1="795.76453"
       x2="-257.5014"
       y2="795.76453"
       gradientTransform="matrix(145.1485,0,0,-145.1485,38078.988,115706.98)">
      <stop
         offset="0"
         style="stop-color:#434343"
         id="stop975" />
      <stop
         offset="1"
         style="stop-color:#8A8A8A"
         id="stop977" />
    </linearGradient>
  </defs>
  <g
     inkscape:label="Layer 1"
     inkscape:groupmode="layer"
     id="layer1"
     transform="translate(-75.927154,-103.46838)">
    <g
       id="g8775"
       inkscape:export-filename="/tmp/storm.png"
       inkscape:export-xdpi="96"
       inkscape:export-ydpi="96">
      <path
         d="m 87.711236,111.14316 c 0,-3.8678 2.826186,-7.07479 6.529721,-7.6684 0.33974,-0.0523 0.638412,0.224 0.638412,0.57121 v 2.36324 c 0,0.31361 0.242672,0.57121 0.54881,0.61601 3.744604,0.55255 6.619321,3.78194 6.619321,7.67961 0,3.86781 -2.826183,7.0748 -6.529719,7.66841 -0.343473,0.056 -0.638412,-0.22027 -0.638412,-0.56748 v -2.36697 c 0,-0.31361 -0.242671,-0.57122 -0.54881,-0.61602 -3.744603,-0.55254 -6.619323,-3.78193 -6.619323,-7.67961 z m 10.752199,1.79204 a 3.5840666,3.5840666 0 1 0 -7.168132,0 3.5840666,3.5840666 0 1 0 7.168132,0 z m -3.584066,-1.19469 a 1.19469,1.19469 0 1 1 0,2.38938 1.19469,1.19469 0 1 1 0,-2.38938 z"
         id="path840"
         style="stroke-width:0.037334" />
      <path
         class="st0"
         d="m 93.189925,120.95304 c 0,0.20758 -0.167288,0.37487 -0.374871,0.37487 -0.207584,0 -0.374871,-0.16851 -0.374871,-0.37487 0,-0.20759 0.168508,-0.37487 0.374871,-0.37487 0.207583,-0.001 0.374871,0.16728 0.374871,0.37487"
         id="path965"
         style="stroke-width:0.0122108" />
      <rect
         x="95.699997"
         y="87.300003"
         style="fill:#5497a0;fill-opacity:1;stroke-width:0.982737;stroke-miterlimit:4;stroke-dasharray:none"
         width="607.40002"
         height="231.39999"
         clip-path="url(#SVGID_00000168830874702397088330000011577343275046569908_)"
         id="rect980"
         transform="matrix(0.01221079,0,0,0.01221079,85.815829,118.49989)" />
      <g
         id="g963"
         transform="matrix(0.02227349,0,0,0.02227349,92.334448,95.715291)">
        <path
           class="st0"
           d="m 182.9,465.1 v -26.6 l -7.9,13.8 h -8.8 l -7.9,-13.8 v 26.6 H 144.6 V 409.5 H 158 L 170.5,434 183,409.5 h 13.4 v 55.6 z"
           id="path943" />
        <path
           class="st0"
           d="m 209.8,465.1 v -55.6 h 37.8 v 12.2 H 223.4 V 431 H 244 v 12.2 h -20.6 v 9.8 h 24.2 v 12.2 h -37.8 z m 22.4,-61.2 h -9.1 l 5.1,-14.1 h 12 z"
           id="path945" />
        <path
           class="st0"
           d="m 296.6,448 c 0,2.8 -0.6,5.3 -1.7,7.5 -1.1,2.2 -2.7,4 -4.6,5.5 -2,1.5 -4.2,2.6 -6.8,3.4 -2.6,0.8 -5.4,1.1 -8.3,1.1 -2.1,0 -4.2,-0.1 -6.1,-0.4 -1.9,-0.3 -3.8,-0.6 -5.5,-1.2 -1.7,-0.6 -3.4,-1.3 -5,-2.2 -1.6,-0.9 -3.1,-2.1 -4.5,-3.6 l 8.8,-8.8 c 1.5,1.5 3.3,2.5 5.6,3 2.3,0.6 4.6,0.9 6.8,0.9 5.3,0 8,-1.7 8,-5 0,-1.4 -0.4,-2.5 -1.1,-3.3 -0.8,-0.8 -2,-1.3 -3.7,-1.5 l -6.7,-0.9 c -4.9,-0.7 -8.7,-2.4 -11.2,-4.9 -2.6,-2.6 -3.8,-6.3 -3.8,-11.2 0,-2.6 0.5,-4.9 1.4,-7 0.9,-2.1 2.3,-4 4,-5.6 1.7,-1.6 3.9,-2.8 6.4,-3.7 2.5,-0.9 5.3,-1.3 8.5,-1.3 4,0 7.5,0.5 10.6,1.5 3.1,1 5.8,2.7 8.2,5.1 l -8.6,8.6 c -1.5,-1.5 -3,-2.4 -4.7,-2.7 -1.7,-0.4 -3.6,-0.5 -5.9,-0.5 -1.2,0 -2.2,0.2 -3,0.5 -0.8,0.3 -1.5,0.7 -2.1,1.2 -0.6,0.5 -0.9,1 -1.2,1.6 -0.3,0.6 -0.4,1.2 -0.4,1.8 0,0.4 0.1,0.8 0.2,1.2 0.1,0.4 0.4,0.9 0.9,1.3 0.4,0.4 0.9,0.7 1.4,1 0.6,0.3 1.4,0.5 2.4,0.6 l 6.7,0.9 c 4.9,0.7 8.5,2.2 10.9,4.6 1.5,1.5 2.6,3.2 3.2,5.2 0.6,2 0.9,4.7 0.9,7.3 z"
           id="path947" />
        <path
           class="st0"
           d="m 348.1,437.2 c 0,2.4 0,4.5 -0.1,6.6 -0.1,2.1 -0.3,4 -0.6,5.9 -0.4,1.9 -0.9,3.6 -1.7,5.2 -0.8,1.6 -1.9,3.1 -3.3,4.5 -2,2 -4.2,3.5 -6.6,4.5 -2.4,1 -5.4,1.6 -8.8,1.6 -3.4,0 -6.4,-0.5 -8.8,-1.6 -2.4,-1 -4.7,-2.6 -6.6,-4.5 -1.4,-1.4 -2.5,-2.9 -3.3,-4.5 -0.8,-1.6 -1.4,-3.4 -1.7,-5.2 -0.4,-1.8 -0.6,-3.8 -0.6,-5.9 0,-2.1 -0.1,-4.3 -0.1,-6.6 0,-2.3 0,-4.5 0.1,-6.6 0.1,-2.1 0.3,-4 0.6,-5.9 0.4,-1.8 0.9,-3.6 1.7,-5.2 0.8,-1.6 1.9,-3.1 3.3,-4.5 2,-2 4.2,-3.5 6.6,-4.5 2.5,-1 5.4,-1.6 8.8,-1.6 3.4,0 6.4,0.5 8.8,1.6 2.5,1 4.7,2.6 6.6,4.5 1.4,1.4 2.5,2.9 3.3,4.5 0.8,1.6 1.4,3.4 1.7,5.2 0.4,1.9 0.6,3.8 0.6,5.9 0.1,2.1 0.1,4.3 0.1,6.6 z m -13.7,0 c 0,-2.5 0,-4.6 -0.2,-6.2 -0.1,-1.6 -0.2,-2.9 -0.4,-3.8 -0.2,-0.9 -0.4,-1.7 -0.6,-2.2 -0.3,-0.5 -0.5,-1 -0.9,-1.4 -0.5,-0.7 -1.2,-1.2 -2.2,-1.7 -0.9,-0.5 -2,-0.7 -3.3,-0.7 -1.3,0 -2.3,0.2 -3.3,0.7 -0.9,0.5 -1.7,1 -2.2,1.7 -0.3,0.4 -0.6,0.9 -0.9,1.4 -0.3,0.5 -0.5,1.3 -0.6,2.2 -0.1,0.9 -0.3,2.2 -0.4,3.8 -0.1,1.6 -0.2,3.7 -0.2,6.2 0,2.6 0.1,4.6 0.2,6.2 0.1,1.6 0.2,2.8 0.4,3.8 0.2,1 0.4,1.7 0.6,2.2 0.3,0.5 0.5,1 0.9,1.4 0.5,0.7 1.3,1.3 2.2,1.8 0.9,0.5 2,0.8 3.3,0.8 1.3,0 2.3,-0.2 3.3,-0.8 0.9,-0.5 1.7,-1.1 2.2,-1.8 0.3,-0.4 0.6,-0.9 0.9,-1.4 0.3,-0.5 0.5,-1.3 0.6,-2.2 0.2,-1 0.3,-2.2 0.4,-3.8 0.2,-1.6 0.2,-3.6 0.2,-6.2 z"
           id="path949" />
        <path
           class="st0"
           d="m 399.9,447.4 c -0.5,3.1 -1.4,5.7 -2.7,8 -1.3,2.3 -2.8,4.2 -4.7,5.7 -1.9,1.5 -3.9,2.6 -6.2,3.4 -2.3,0.7 -4.8,1.1 -7.5,1.1 -3.4,0 -6.4,-0.5 -8.8,-1.6 -2.5,-1 -4.7,-2.6 -6.6,-4.5 -1.4,-1.4 -2.5,-2.9 -3.3,-4.5 -0.8,-1.6 -1.4,-3.4 -1.7,-5.2 -0.4,-1.8 -0.6,-3.8 -0.6,-5.9 -0.1,-2.1 -0.1,-4.3 -0.1,-6.6 0,-2.3 0,-4.5 0.1,-6.6 0.1,-2.1 0.3,-4 0.6,-5.9 0.4,-1.8 0.9,-3.6 1.7,-5.2 0.8,-1.6 1.9,-3.1 3.3,-4.5 2,-2 4.2,-3.5 6.6,-4.5 2.4,-1 5.4,-1.6 8.8,-1.6 2.7,0 5.1,0.4 7.5,1.1 2.4,0.7 4.4,1.9 6.2,3.4 1.9,1.5 3.4,3.4 4.7,5.7 1.2,2.3 2.1,4.9 2.7,8 H 386 c -0.4,-1.6 -1.1,-2.9 -2.2,-4.1 -1,-1.2 -2.7,-1.8 -4.9,-1.8 -1.2,0 -2.3,0.2 -3.2,0.7 -0.9,0.4 -1.6,1 -2.1,1.7 -0.3,0.4 -0.6,0.9 -0.9,1.4 -0.3,0.5 -0.5,1.3 -0.7,2.3 -0.2,1 -0.3,2.3 -0.4,3.9 -0.1,1.6 -0.2,3.7 -0.2,6.2 0,2.6 0,4.6 0.2,6.2 0.1,1.6 0.2,2.9 0.4,3.9 0.2,1 0.4,1.8 0.7,2.3 0.3,0.5 0.5,1 0.9,1.4 0.5,0.7 1.2,1.2 2.1,1.7 0.9,0.4 2,0.7 3.2,0.7 2.2,0 3.9,-0.6 4.9,-1.8 1,-1.2 1.8,-2.6 2.2,-4.1 h 13.9 z"
           id="path951" />
        <path
           class="st0"
           d="m 409.1,465.1 v -55.6 h 37.8 v 12.2 h -24.2 v 9.3 h 20.6 v 12.2 h -20.6 v 9.8 h 24.2 v 12.2 h -37.8 z"
           id="path953" />
        <path
           class="st0"
           d="m 490.1,465.1 -17.8,-28 v 28 h -13.7 v -55.6 h 12 l 17.8,28 v -28 H 502 v 55.6 z"
           id="path955" />
        <path
           class="st0"
           d="m 539.3,421.6 v 43.5 h -13.7 v -43.5 h -13.7 v -12.2 h 41 v 12.2 z"
           id="path957" />
        <path
           class="st0"
           d="m 591,465.1 -9.8,-20.7 h -4.6 v 20.7 h -13.7 v -55.6 h 22 c 3.1,0 5.8,0.5 8.2,1.5 2.4,1 4.3,2.4 5.9,4 1.6,1.7 2.8,3.6 3.6,5.7 0.8,2.1 1.2,4.4 1.2,6.6 0,1.9 -0.3,3.6 -0.8,5.2 -0.5,1.6 -1.2,2.9 -2.1,4.1 -0.9,1.2 -1.8,2.2 -2.9,3.1 -1.1,0.9 -2.1,1.6 -3.2,2.1 l 12,23.2 H 591 Z m -0.7,-37.8 c 0,-1.5 -0.5,-2.8 -1.6,-3.9 -1,-1.1 -2.5,-1.7 -4.4,-1.7 h -7.7 V 433 h 7.7 c 1.9,0 3.3,-0.6 4.4,-1.7 1,-1.2 1.6,-2.5 1.6,-4 z"
           id="path959" />
        <path
           class="st0"
           d="m 615.8,465.1 v -55.6 h 37.8 v 12.2 H 629.4 V 431 H 650 v 12.2 h -20.6 v 9.8 h 24.2 v 12.2 h -37.8 z"
           id="path961" />
      </g>
      <rect
         x="99.205818"
         y="103.78275"
         class="st3"
         width="4.0493202"
         height="0.089093961"
         id="rect995"
         style="stroke-width:0.0222735" />
      <text
         xml:space="preserve"
         style="font-style:normal;font-variant:normal;font-weight:normal;font-stretch:normal;font-size:10.5833px;line-height:1.25;font-family:B612;-inkscape-font-specification:'B612, Normal';font-variant-ligatures:normal;font-variant-caps:normal;font-variant-numeric:normal;font-variant-east-asian:normal;fill:#000000;fill-opacity:1;stroke:none;stroke-width:0.264583"
         x="75.387405"
         y="117.07782"
         id="text2012"><tspan
           sodipodi:role="line"
           id="tspan2010"
           style="font-style:normal;font-variant:normal;font-weight:normal;font-stretch:normal;font-size:10.5833px;font-family:B612;-inkscape-font-specification:'B612, Normal';font-variant-ligatures:normal;font-variant-caps:normal;font-variant-numeric:normal;font-variant-east-asian:normal;stroke-width:0.264583"
           x="75.387405"
           y="117.07782">ST</tspan></text>
      <text
         xml:space="preserve"
         style="font-style:normal;font-variant:normal;font-weight:normal;font-stretch:normal;font-size:10.5833px;line-height:1.25;font-family:B612;-inkscape-font-specification:'B612, Normal';font-variant-ligatures:normal;font-variant-caps:normal;font-variant-numeric:normal;font-variant-east-asian:normal;fill:#000000;fill-opacity:1;stroke:none;stroke-width:0.264583"
         x="102.30109"
         y="117.13074"
         id="text3786"><tspan
           sodipodi:role="line"
           id="tspan3784"
           style="font-style:normal;font-variant:normal;font-weight:normal;font-stretch:normal;font-size:10.5833px;font-family:B612;-inkscape-font-specification:'B612, Normal';font-variant-ligatures:normal;font-variant-caps:normal;font-variant-numeric:normal;font-variant-east-asian:normal;stroke-width:0.264583"
           x="102.30109"
           y="117.13074">RM</tspan></text>
    </g>
  </g>
  <style
     type="text/css"
     id="style941">
	.st0{fill:#5497A0;}
	
		.st1{clip-path:url(#SVGID_00000090269743448219021940000006031872350393876404_);fill:url(#SVGID_00000183243709503626271370000006372045512019595192_);}
	.st2{opacity:0.9;fill:url(#SVGID_00000025416795856952458350000005925631089401273984_);}
	.st3{fill:#CECECD;}
	.st4{fill:#706F6E;}
	.st5{fill:#6F6F6E;}
</style>
</svg>
