<?xml version="1.0" encoding="UTF-8" standalone="no"?>
<!-- Created with Inkscape (http://www.inkscape.org/) -->

<svg
   width="48.756252mm"
   height="16.766359mm"
   viewBox="0 0 48.756253 16.76636"
   version="1.1"
   id="svg5"
   inkscape:version="1.3.2 (091e20ef0f, 2023-11-25)"
   sodipodi:docname="storm-logo.svg"
   xmlns:inkscape="http://www.inkscape.org/namespaces/inkscape"
   xmlns:sodipodi="http://sodipodi.sourceforge.net/DTD/sodipodi-0.dtd"
   xmlns:xlink="http://www.w3.org/1999/xlink"
   xmlns="http://www.w3.org/2000/svg"
   xmlns:svg="http://www.w3.org/2000/svg">
  <sodipodi:namedview
     id="namedview7"
     pagecolor="#ffffff"
     bordercolor="#666666"
     borderopacity="1.0"
     inkscape:pageshadow="2"
     inkscape:pageopacity="0.0"
     inkscape:pagecheckerboard="0"
     inkscape:document-units="mm"
     showgrid="false"
     inkscape:zoom="3.5354761"
     inkscape:cx="35.780188"
     inkscape:cy="49.922555"
     inkscape:window-width="1904"
     inkscape:window-height="995"
     inkscape:window-x="1928"
     inkscape:window-y="40"
     inkscape:window-maximized="0"
     inkscape:current-layer="layer1"
     inkscape:showpageshadow="2"
     inkscape:deskcolor="#d1d1d1" />
  <defs
     id="defs2">
    <path
       id="SVGID_1_"
       d="m 301.9,131.3 v 0 c -15.9,20.2 -24.7,45.5 -24.7,71.3 -0.1,36.5 -29.8,66.1 -66.2,66.1 -36,0 -65.4,-28.9 -66.2,-64.7 v -96.3 -0.6 C 142.5,95.6 132.3,87.2 120.5,87.2 106.8,87.2 95.7,98.3 95.7,112 v 90.5 c 0,63.6 51.8,115.3 115.3,115.3 35.4,0 69,-16.5 90.8,-44.2 3.1,3.8 6.7,7.5 9.9,10.7 12.5,12.3 27.2,21.4 43.9,27 12,4 24.4,6.1 36.9,6.1 46.2,0 88.3,-28.2 106.1,-70.7 l 0.1,0.1 1.2,-3.2 c 4.7,-12.2 7.2,-25 7.6,-38.1 v -3.1 c 0,-36.4 29.6,-66 66,-66 36.4,0 66,29.6 66,66 v 81.1 c -0.1,1.7 -0.1,3.2 0,4.5 1,12.7 9.4,23.6 21.5,27.7 8.5,2.9 18,2 25.9,-2.5 6.9,-3.9 12,-10.1 14.5,-17.5 0.4,-1.3 0.8,-2.6 1.1,-4.3 l 0.4,-2.2 -1.9,-1.1 c -9.1,-5.4 -12.4,-12.5 -12.5,-27 v -2.6 -56.2 C 688.5,138.9 636.9,87.2 573.4,87.2 510,87.2 458.3,138.8 458.3,202.3 v 0 c 0,6.8 -1.1,13.5 -3.1,20 l -0.4,1.2 c -9.1,26.8 -34.2,44.9 -62.6,44.9 -7.2,0 -14.3,-1.1 -21.2,-3.5 -34.5,-11.7 -53.1,-49.2 -41.4,-83.7 9.1,-26.9 34.2,-44.9 62.6,-44.9 7.1,0 14.1,1.2 20.5,3.3 0.8,0.3 1.5,0.7 2.3,0.9 2.6,0.9 5.2,1.3 7.9,1.3 10.5,0 19.9,-6.7 23.3,-16.7 2.1,-6.2 1.6,-12.9 -1.3,-18.8 -2.7,-5.5 -7.3,-9.7 -12.9,-11.9 v 0 l -3,-1 c -11.9,-4.1 -24.4,-6.1 -36.9,-6.1 -34.8,0 -68.6,16.5 -90.2,44" />
    <linearGradient
       id="SVGID_00000170974716095025024200000011531892178172189109_"
       gradientUnits="userSpaceOnUse"
       x1="-479.12491"
       y1="373.0134"
       x2="-419.25681"
       y2="338.44849"
       gradientTransform="matrix(0.01221079,0,0,0.01221079,94.57025,117.27576)"
       xlink:href="#SVGID_00000116940738073422813870000016682258116119640491_">
      <stop
         offset="0"
         style="stop-color:#333333;stop-opacity:0"
         id="stop984" />
      <stop
         offset="1"
         style="stop-color:#000000"
         id="stop986" />
    </linearGradient>
    <defs
       id="defs970">
      <path
         id="path1081"
         d="m 301.9,131.3 v 0 c -15.9,20.2 -24.7,45.5 -24.7,71.3 -0.1,36.5 -29.8,66.1 -66.2,66.1 -36,0 -65.4,-28.9 -66.2,-64.7 v -96.3 -0.6 C 142.5,95.6 132.3,87.2 120.5,87.2 106.8,87.2 95.7,98.3 95.7,112 v 90.5 c 0,63.6 51.8,115.3 115.3,115.3 35.4,0 69,-16.5 90.8,-44.2 3.1,3.8 6.7,7.5 9.9,10.7 12.5,12.3 27.2,21.4 43.9,27 12,4 24.4,6.1 36.9,6.1 46.2,0 88.3,-28.2 106.1,-70.7 l 0.1,0.1 1.2,-3.2 c 4.7,-12.2 7.2,-25 7.6,-38.1 v -3.1 c 0,-36.4 29.6,-66 66,-66 36.4,0 66,29.6 66,66 v 81.1 c -0.1,1.7 -0.1,3.2 0,4.5 1,12.7 9.4,23.6 21.5,27.7 8.5,2.9 18,2 25.9,-2.5 6.9,-3.9 12,-10.1 14.5,-17.5 0.4,-1.3 0.8,-2.6 1.1,-4.3 l 0.4,-2.2 -1.9,-1.1 c -9.1,-5.4 -12.4,-12.5 -12.5,-27 v -2.6 -56.2 C 688.5,138.9 636.9,87.2 573.4,87.2 510,87.2 458.3,138.8 458.3,202.3 v 0 c 0,6.8 -1.1,13.5 -3.1,20 l -0.4,1.2 c -9.1,26.8 -34.2,44.9 -62.6,44.9 -7.2,0 -14.3,-1.1 -21.2,-3.5 -34.5,-11.7 -53.1,-49.2 -41.4,-83.7 9.1,-26.9 34.2,-44.9 62.6,-44.9 7.1,0 14.1,1.2 20.5,3.3 0.8,0.3 1.5,0.7 2.3,0.9 2.6,0.9 5.2,1.3 7.9,1.3 10.5,0 19.9,-6.7 23.3,-16.7 2.1,-6.2 1.6,-12.9 -1.3,-18.8 -2.7,-5.5 -7.3,-9.7 -12.9,-11.9 v 0 l -3,-1 c -11.9,-4.1 -24.4,-6.1 -36.9,-6.1 -34.8,0 -68.6,16.5 -90.2,44" />
    </defs>
    <clipPath
       id="SVGID_00000168830874702397088330000011577343275046569908_">
      <use
         xlink:href="#SVGID_1_"
         style="overflow:visible"
         id="use972"
         x="0"
         y="0"
         width="100%"
         height="100%" />
    </clipPath>
    <linearGradient
       id="SVGID_00000116940738073422813870000016682258116119640491_"
       gradientUnits="userSpaceOnUse"
       x1="-261.686"
       y1="795.76453"
       x2="-257.5014"
       y2="795.76453"
       gradientTransform="matrix(145.1485,0,0,-145.1485,38078.988,115706.98)">
      <stop
         offset="0"
         style="stop-color:#434343"
         id="stop975" />
      <stop
         offset="1"
         style="stop-color:#8A8A8A"
         id="stop977" />
    </linearGradient>
  </defs>
  <g
     inkscape:label="Layer 1"
     inkscape:groupmode="layer"
     id="layer1"
     transform="translate(-76.236059,-104.23673)">
    <g
       id="g1">
      <path
         d="m 91.993969,111.39075 c 0,-3.30825 2.417332,-6.05139 5.585162,-6.55906 0.29044,-0.0424 0.54607,0.19119 0.54607,0.4887 v 2.0214 c 0,0.26841 0.20762,0.48869 0.46948,0.52688 3.202939,0.47245 5.661849,3.23489 5.661849,6.56871 0,3.30835 -2.41738,6.05145 -5.585209,6.55916 -0.29393,0.0495 -0.54603,-0.18836 -0.54603,-0.48525 v -2.02461 c 0,-0.26841 -0.20761,-0.48874 -0.46948,-0.52693 -3.202939,-0.47244 -5.661795,-3.23484 -5.661795,-6.56871 z m 9.196831,1.53285 a 3.06562,3.06562 0 1 0 -6.131239,0 3.06562,3.06562 0 1 0 6.131239,0 z m -3.065599,-1.02188 a 1.021885,1.021885 0 1 1 0,2.04377 1.021885,1.021885 0 1 1 0,-2.04377 z"
         id="path840"
         style="stroke-width:0.0319335;fill:#3cb371;fill-opacity:1" />
      <path
         class="st0"
         d="m 99.996517,106.84217 v -0.92023 l -0.273126,0.47714 h -0.304487 l -0.273108,-0.47714 v 0.92023 H 98.67207 v -1.9235 h 0.463884 l 0.432506,0.84825 0.43249,-0.84825 h 0.46388 v 1.9235 z"
         id="path943"
         style="stroke-width:0.0345952;fill:#3cb371;fill-opacity:1" />
      <path
         class="st0"
         d="m 100.92705,106.84217 v -1.9235 h 1.30774 v 0.42155 h -0.8373 v 0.32152 h 0.71278 v 0.42156 h -0.71278 v 0.33946 h 0.8373 v 0.42156 h -1.30774 z m 0.77461,-2.11718 h -0.31518 l 0.17632,-0.48826 h 0.41557 z"
         id="path945"
         style="stroke-width:0.0345952;fill:#3cb371;fill-opacity:1" />
      <path
         class="st0"
         d="m 103.93,106.25063 c 0,0.0966 -0.0182,0.18384 -0.0625,0.25995 -0.0359,0.0684 -0.0932,0.13764 -0.15943,0.18983 -0.0719,0.0512 -0.14509,0.0897 -0.23548,0.11712 -0.0904,0.0256 -0.18718,0.0341 -0.28748,0.0341 -0.0719,0 -0.14508,-0.004 -0.21138,-0.0163 -0.0625,-0.009 -0.13165,-0.0164 -0.18983,-0.0427 -0.0625,-0.0163 -0.11731,-0.0427 -0.17288,-0.0684 -0.0539,-0.0256 -0.1075,-0.0685 -0.1558,-0.12494 l 0.30449,-0.30441 c 0.0539,0.0512 0.11367,0.0897 0.19343,0.1035 0.0804,0.0164 0.15943,0.0256 0.23548,0.0256 0.18358,0 0.27672,-0.0599 0.27672,-0.17269 0,-0.0427 -0.0182,-0.0897 -0.0359,-0.11368 -0.0265,-0.0256 -0.0719,-0.0429 -0.12802,-0.0512 l -0.23191,-0.0256 c -0.16924,-0.0256 -0.30091,-0.077 -0.38778,-0.16924 -0.0895,-0.0897 -0.13165,-0.21805 -0.13165,-0.38734 0,-0.0897 0.0182,-0.16924 0.0445,-0.24286 0.0265,-0.0685 0.0804,-0.13855 0.13873,-0.19324 0.0625,-0.0512 0.1351,-0.0966 0.22121,-0.1282 0.0895,-0.0256 0.18359,-0.0427 0.29372,-0.0427 0.13873,0 0.25969,0.0164 0.36623,0.0512 0.1075,0.0341 0.2006,0.0931 0.28389,0.17614 l -0.29731,0.29757 c -0.0539,-0.0512 -0.10387,-0.077 -0.16307,-0.0932 -0.0625,-0.0163 -0.12457,-0.0163 -0.20419,-0.0163 -0.0445,0 -0.0719,0.005 -0.10387,0.0163 -0.0265,0.009 -0.0539,0.0256 -0.0717,0.0427 -0.0182,0.0163 -0.0265,0.0341 -0.0445,0.0512 -0.009,0.0164 -0.0182,0.0427 -0.0182,0.0599 0,0.0163 0.004,0.0256 0.007,0.0429 0.004,0.0164 0.0182,0.0256 0.0265,0.0427 0.0182,0.0163 0.0265,0.0256 0.0445,0.0341 0.0182,0.009 0.0445,0.0163 0.0804,0.0163 l 0.23191,0.0256 c 0.16924,0.0256 0.29371,0.0685 0.37699,0.15907 0.0539,0.0512 0.0895,0.11113 0.11113,0.1805 0.0182,0.0685 0.0265,0.16252 0.0265,0.25226 z"
         id="path947"
         style="stroke-width:0.0345952;fill:#3cb371;fill-opacity:1" />
      <path
         class="st0"
         d="m 105.71165,105.87696 c 0,0.077 0,0.15562 -0.004,0.22831 -0.004,0.0685 -0.009,0.13765 -0.0182,0.20436 -0.0182,0.0599 -0.0265,0.12475 -0.0625,0.1805 -0.0265,0.0512 -0.0625,0.10768 -0.11367,0.15562 -0.0719,0.0685 -0.14509,0.12057 -0.22839,0.15562 -0.0804,0.0341 -0.18718,0.0512 -0.3045,0.0512 -0.11731,0 -0.22121,-0.0163 -0.30449,-0.0512 -0.0804,-0.0341 -0.16306,-0.0897 -0.2284,-0.15562 -0.0445,-0.0427 -0.0895,-0.10006 -0.11367,-0.15562 -0.0265,-0.0512 -0.0445,-0.11713 -0.0625,-0.1805 -0.0182,-0.0599 -0.0182,-0.13165 -0.0182,-0.20436 0,-0.0685 -0.004,-0.14872 -0.004,-0.22831 0,-0.077 0,-0.15562 0.004,-0.22831 0.004,-0.0685 0.009,-0.13764 0.0182,-0.20436 0.0182,-0.0599 0.0265,-0.12493 0.0625,-0.1805 0.0265,-0.0512 0.0625,-0.10768 0.11367,-0.15562 0.0719,-0.0685 0.14509,-0.12057 0.2284,-0.15562 0.0895,-0.0341 0.18717,-0.0512 0.30449,-0.0512 0.11731,0 0.22121,0.0163 0.3045,0.0512 0.0895,0.0341 0.16289,0.0897 0.22839,0.15562 0.0445,0.0427 0.0895,0.10006 0.11367,0.15562 0.0265,0.0512 0.0445,0.11713 0.0625,0.1805 0.0182,0.0599 0.0182,0.13165 0.0182,0.20436 0.004,0.0685 0.004,0.14872 0.004,0.22831 z m -0.47371,0 c 0,-0.0897 0,-0.15907 -0.005,-0.21462 -0.004,-0.0512 -0.007,-0.10005 -0.0182,-0.13165 -0.005,-0.0256 -0.0182,-0.0599 -0.0182,-0.0685 -0.009,-0.0163 -0.0182,-0.0341 -0.0265,-0.0427 -0.0182,-0.0256 -0.0445,-0.0427 -0.0719,-0.0599 -0.0265,-0.0164 -0.0719,-0.0256 -0.11367,-0.0256 -0.0445,0 -0.0804,0.005 -0.11367,0.0256 -0.0265,0.0163 -0.0625,0.0341 -0.0719,0.0599 -0.009,0.0163 -0.0182,0.0256 -0.0265,0.0427 -0.009,0.0163 -0.0182,0.0427 -0.0182,0.0685 -0.004,0.0256 -0.009,0.0685 -0.0182,0.13165 -0.004,0.0512 -0.005,0.1282 -0.005,0.21462 0,0.0897 0.004,0.15907 0.005,0.21377 0.004,0.0512 0.007,0.0966 0.0182,0.13165 0.007,0.0341 0.0182,0.0599 0.0182,0.0685 0.009,0.0163 0.0181,0.0341 0.0265,0.0427 0.0182,0.0256 0.0445,0.0429 0.0719,0.0599 0.0265,0.0164 0.0719,0.0256 0.11367,0.0256 0.0445,0 0.0804,-0.005 0.11367,-0.0256 0.0265,-0.0163 0.0625,-0.0341 0.0719,-0.0599 0.009,-0.0163 0.0182,-0.0256 0.0265,-0.0427 0.009,-0.0164 0.0182,-0.0429 0.0182,-0.0685 0.007,-0.0341 0.009,-0.0685 0.0182,-0.13165 0.005,-0.0512 0.005,-0.12403 0.005,-0.21377 z"
         id="path949"
         style="stroke-width:0.0345952;fill:#3cb371;fill-opacity:1" />
      <path
         class="st0"
         d="m 107.50368,106.22986 c -0.0182,0.10768 -0.0445,0.19666 -0.0932,0.27705 -0.0445,0.077 -0.0968,0.14527 -0.16307,0.19666 -0.0625,0.0512 -0.1351,0.0897 -0.21402,0.11712 -0.0804,0.0256 -0.16651,0.0341 -0.25968,0.0341 -0.11731,0 -0.22121,-0.0163 -0.30451,-0.0512 -0.0895,-0.0341 -0.16306,-0.0897 -0.22838,-0.15562 -0.0445,-0.0427 -0.0895,-0.10005 -0.11368,-0.15562 -0.0265,-0.0512 -0.0445,-0.11712 -0.0625,-0.1805 -0.0182,-0.0599 -0.0182,-0.13165 -0.0182,-0.20436 -0.004,-0.0685 -0.004,-0.14872 -0.004,-0.22831 0,-0.077 0,-0.15562 0.004,-0.22831 0.004,-0.0685 0.009,-0.13764 0.0182,-0.20436 0.0182,-0.0599 0.0265,-0.12475 0.0625,-0.18049 0.0265,-0.0512 0.0625,-0.10769 0.11368,-0.15563 0.0717,-0.0684 0.14509,-0.12057 0.22838,-0.15562 0.0804,-0.0341 0.18718,-0.0512 0.30451,-0.0512 0.0932,0 0.17632,0.0163 0.25968,0.0341 0.0804,0.0256 0.15218,0.0599 0.21402,0.11713 0.0625,0.0512 0.11731,0.11712 0.16307,0.19666 0.0445,0.077 0.0719,0.16924 0.0932,0.27705 h -0.48089 c -0.0182,-0.0512 -0.036,-0.10006 -0.0719,-0.1411 -0.036,-0.0427 -0.0932,-0.0599 -0.16924,-0.0599 -0.0445,0 -0.0804,0.005 -0.11114,0.0256 -0.0265,0.0164 -0.0539,0.0341 -0.0719,0.0599 -0.009,0.0163 -0.0182,0.0256 -0.0265,0.0427 -0.009,0.0163 -0.0182,0.0427 -0.0265,0.077 -0.005,0.0341 -0.009,0.077 -0.0182,0.1351 -0.004,0.0512 -0.005,0.12821 -0.005,0.21464 0,0.0897 0,0.15907 0.005,0.21462 0.004,0.0512 0.005,0.10006 0.0182,0.1351 0.005,0.0341 0.0182,0.0599 0.0265,0.077 0.009,0.0164 0.0182,0.0341 0.0265,0.0427 0.0181,0.0256 0.0445,0.0427 0.0719,0.0599 0.0265,0.0163 0.0719,0.0256 0.11114,0.0256 0.0719,0 0.1351,-0.0164 0.16924,-0.0599 0.0359,-0.0427 0.0625,-0.0906 0.0719,-0.14109 h 0.48089 z"
         id="path951"
         style="stroke-width:0.0345952;fill:#3cb371;fill-opacity:1" />
      <path
         class="st0"
         d="m 107.82195,106.84217 v -1.9235 h 1.30773 v 0.42155 h -0.83731 v 0.32152 h 0.7129 v 0.42156 h -0.7129 v 0.33946 h 0.83731 v 0.42156 h -1.30773 z"
         id="path953"
         style="stroke-width:0.0345952;fill:#3cb371;fill-opacity:1" />
      <path
         class="st0"
         d="m 110.62422,106.84217 -0.61609,-0.96862 v 0.96862 h -0.47373 v -1.9235 h 0.41464 l 0.61609,0.96873 v -0.96873 h 0.47011 v 1.9235 z"
         id="path955"
         style="stroke-width:0.0345952;fill:#3cb371;fill-opacity:1" />
      <path
         class="st0"
         d="m 112.32624,105.33723 v 1.50494 h -0.47371 v -1.50494 h -0.47373 v -0.42156 h 1.41844 v 0.42156 z"
         id="path957"
         style="stroke-width:0.0345952;fill:#3cb371;fill-opacity:1" />
      <path
         class="st0"
         d="m 114.11486,106.84217 -0.33937,-0.71654 h -0.15943 v 0.71654 h -0.47371 v -1.9235 h 0.7612 c 0.1075,0 0.2006,0.0163 0.28387,0.0512 0.0804,0.0341 0.14872,0.077 0.2042,0.13855 0.0539,0.0599 0.0968,0.12493 0.12457,0.19668 0.0265,0.0684 0.0445,0.15217 0.0445,0.22829 0,0.0599 -0.009,0.12402 -0.0265,0.1805 -0.0182,0.0512 -0.0445,0.10005 -0.0719,0.14109 -0.0265,0.0427 -0.0625,0.077 -0.10024,0.10768 -0.0359,0.0256 -0.0717,0.0512 -0.11113,0.0685 l 0.41464,0.80207 h -0.54624 z m -0.0265,-1.30767 c 0,-0.0512 -0.0182,-0.0966 -0.0539,-0.1351 -0.036,-0.0341 -0.0895,-0.0599 -0.15217,-0.0599 h -0.26594 v 0.39163 h 0.26594 c 0.0625,0 0.11458,-0.0163 0.15217,-0.0599 0.0359,-0.0427 0.0539,-0.0897 0.0539,-0.13856 z"
         id="path959"
         style="stroke-width:0.0345952;fill:#3cb371;fill-opacity:1" />
      <path
         class="st0"
         d="m 114.97279,106.84217 v -1.9235 h 1.30772 v 0.42155 h -0.8373 v 0.32152 h 0.71281 v 0.42156 h -0.71281 v 0.33946 h 0.8373 v 0.42156 h -1.30772 z"
         id="path961"
         style="stroke-width:0.0345952;fill:#3cb371;fill-opacity:1" />
      <path
         class="cls-1"
         d="m 82.146248,111.08542 c -0.105483,-0.598 -0.316497,-1.23124 -1.65348,-1.23124 -1.337007,0 -1.512744,0.51025 -1.512744,0.91474 0,1.47748 5.857436,0.4045 5.857436,3.85221 0,2.72648 -2.63847,3.21897 -4.098448,3.21897 -2.128227,0 -4.432712,-0.73874 -4.502953,-3.23647 h 2.532975 c 0,0.79149 0.492488,1.372 2.040474,1.372 1.266499,0 1.565485,-0.61576 1.565485,-0.9675 0,-1.56548 -5.804682,-0.387 -5.804682,-3.88746 0,-1.37198 0.861994,-3.13097 3.781696,-3.13097 1.829495,0 4.010464,0.4575 4.203954,3.09597 h -2.409713 z"
         id="path18"
         style="fill:#3cb371;fill-opacity:1;stroke-width:0px" />
      <path
         class="cls-1"
         d="m 89.515203,108.3767 h 1.530231 v 1.75897 h -1.530231 v 5.08346 c 0,0.54524 0.01756,0.75649 1.020243,0.75649 0.158249,0 0.334251,-0.0176 0.509988,-0.0352 v 1.86448 c -0.386993,0.0174 -0.773987,0.0352 -1.160992,0.0352 h -0.316486 c -2.128481,0 -2.515475,-0.80924 -2.515475,-2.02272 v -5.6817 h -1.266487 v -1.75897 h 1.266487 v -2.53298 h 2.462468 v 2.53298 z"
         id="path19"
         style="fill:#3cb371;fill-opacity:1;stroke-width:0px" />
      <path
         class="cls-1"
         d="m 105.20507,108.48219 h 2.35699 v 1.61824 h 0.0352 c 0.51024,-0.94975 1.07299,-1.86448 2.56822,-1.86448 0.15825,0 0.31649,0.0174 0.475,0.0352 v 2.49772 c -0.21099,-0.0352 -0.475,-0.0352 -0.70348,-0.0352 -1.91724,0 -2.26924,1.19624 -2.26924,2.23399 v 4.87244 h -2.46247 v -9.35795 z"
         id="path20"
         style="fill:#3cb371;fill-opacity:1;stroke-width:0px" />
      <path
         class="cls-1"
         d="m 124.99184,117.83985 h -2.46247 v -5.68144 c 0,-1.38975 -0.61575,-1.84698 -1.33672,-1.84698 -1.23124,0 -1.67098,0.80924 -1.67098,1.91722 v 5.6112 h -2.46248 v -5.6287 c 0,-0.79148 0,-1.89972 -1.47748,-1.89972 -1.16099,0 -1.53022,0.80924 -1.53022,1.82923 v 5.69919 h -2.46248 v -9.35765 h 2.35697 v 1.37198 h 0.0352 c 0.31649,-0.61575 1.00275,-1.61822 2.65597,-1.61822 1.35449,0 1.96997,0.4925 2.60322,1.49523 0.3165,-0.45724 1.00248,-1.49523 2.49772,-1.49523 1.82923,0 3.25422,1.07298 3.25422,3.13095 v 6.47319 z"
         id="path21"
         style="fill:#3cb371;fill-opacity:1;stroke-width:0px" />
    </g>
  </g>
  <style
     type="text/css"
     id="style941">
	.st0{fill:#5497A0;}
	
		.st1{clip-path:url(#SVGID_00000090269743448219021940000006031872350393876404_);fill:url(#SVGID_00000183243709503626271370000006372045512019595192_);}
	.st2{opacity:0.9;fill:url(#SVGID_00000025416795856952458350000005925631089401273984_);}
	.st3{fill:#CECECD;}
	.st4{fill:#706F6E;}
	.st5{fill:#6F6F6E;}
</style>
</svg>
